<?xml version="1.0" encoding="utf-8"?>
<!-- Generator: Adobe Illustrator 24.1.0, SVG Export Plug-In . SVG Version: 6.00 Build 0)  -->
<svg version="1.1" id="Capa_1" xmlns="http://www.w3.org/2000/svg" xmlns:xlink="http://www.w3.org/1999/xlink" x="0px" y="0px"
	 viewBox="0 0 862 152" style="enable-background:new 0 0 862 152;" xml:space="preserve">
<style type="text/css">
	.st0{enable-background:new    ;}
	.st1{fill:#1B1464;}
	.st2{fill:url(#SVGID_1_);}
	.st3{fill:none;stroke:#000000;stroke-miterlimit:10;}
	.st4{fill:none;stroke:#1B1464;stroke-width:10;stroke-linecap:round;stroke-miterlimit:10;}
</style>
<g>
	<g>
		<g class="st0">
			<path class="st1" d="M531.02,41.29h-33.59V23.14c30.56,0,56.44,0,87.15,0v18.16H551v87.76h-19.97V41.29z"/>
			<path class="st1" d="M596.84,129.05V23.14h19.82v105.91H596.84z"/>
			<path class="st1" d="M727.73,52.34l-34.5,46h-3.93l-33.74-46.15v77.01h-19.97V23.29h23l33.14,45.54l33.14-45.54h22.85V129.2
				h-19.97V52.34z"/>
			<path class="st1" d="M845.45,129.05h-79.29c0-35.25,0-70.66,0-105.91h79.29V42.5h-59.46v24.36h57.34v18.61h-57.34v23.91h59.46
				V129.05z"/>
		</g>
	</g>
	<g>
		
			<linearGradient id="SVGID_1_" gradientUnits="userSpaceOnUse" x1="226.7438" y1="29.7661" x2="227.6275" y2="129.7623" gradientTransform="matrix(1 0 0 -1 0 154)">
			<stop  offset="0.1749" style="stop-color:#0095A3"/>
			<stop  offset="0.6875" style="stop-color:#26DFF0"/>
			<stop  offset="0.9254" style="stop-color:#26DFF0"/>
		</linearGradient>
		<circle class="st2" cx="227.14" cy="79.4" r="50"/>
		<g class="st0">
			<path class="st1" d="M154.96,23.15h9.56l-36.56,106.18h-10.62l-15.47-47.78l-14.71-44.9l-30.64,92.68H46.2L9.79,23.15h9.56
				l18.96,56.73l12.89,38.07l31.1-94.8h9.56l30.79,95.11L154.96,23.15z"/>
			<path class="st1" d="M200.09,124.33c-8.14-4.65-14.49-11.15-19.04-19.49c-4.55-8.34-6.83-17.87-6.83-28.59
				c0-10.72,2.28-20.25,6.83-28.59c4.55-8.34,10.9-14.84,19.04-19.49c8.14-4.65,17.42-6.98,27.83-6.98
				c10.41,0,19.69,2.33,27.83,6.98c8.14,4.65,14.49,11.15,19.04,19.49s6.83,17.88,6.83,28.59c0,10.72-2.28,20.25-6.83,28.59
				c-4.55,8.34-10.9,14.84-19.04,19.49c-8.14,4.65-17.42,6.98-27.83,6.98C217.5,131.31,208.23,128.98,200.09,124.33z M250.98,116.75
				c6.77-3.94,12.06-9.43,15.85-16.46c3.79-7.03,5.69-15.04,5.69-24.04c0-9-1.9-17.01-5.69-24.04c-3.79-7.03-9.08-12.51-15.85-16.46
				c-6.78-3.94-14.46-5.92-23.06-5.92c-8.7,0-16.43,1.97-23.21,5.92c-6.78,3.94-12.06,9.43-15.85,16.46
				c-3.79,7.03-5.69,15.04-5.69,24.04c0,9,1.9,17.02,5.69,24.04c3.79,7.03,9.08,12.51,15.85,16.46c6.77,3.94,14.51,5.92,23.21,5.92
				C236.52,122.66,244.2,120.69,250.98,116.75z"/>
			<path class="st1" d="M342.29,89.59h-28.82v39.74h-8.95V23.15h46.72c6.98,0,13.12,1.39,18.43,4.17
				c5.31,2.78,9.43,6.67,12.36,11.68c2.93,5.01,4.4,10.8,4.4,17.37c0,9.51-2.96,17.29-8.87,23.36c-5.92,6.07-13.83,9.35-23.74,9.86
				l36.4,39.74h-11.68L342.29,89.59z M313.47,31.8v49.15h37.92c7.99,0,14.33-2.22,19.04-6.67c4.7-4.45,7.05-10.41,7.05-17.9
				c0-7.48-2.35-13.45-7.05-17.9c-4.7-4.45-11.05-6.67-19.04-6.67H313.47z"/>
			<path class="st1" d="M487.61,129.34h-12.59l-54.76-52.18v52.18h-9.1V23.15h9.1v48.24l50.51-48.24h12.29l-53.55,50.97
				L487.61,129.34z"/>
		</g>
		<g class="st0">
			<path class="st3" d="M154.96,23.15h9.56l-36.56,106.18h-10.62l-15.47-47.78l-14.71-44.9l-30.64,92.68H46.2L9.79,23.15h9.56
				l18.96,56.73l12.89,38.07l31.1-94.8h9.56l30.79,95.11L154.96,23.15z"/>
			<path class="st3" d="M200.09,124.33c-8.14-4.65-14.49-11.15-19.04-19.49c-4.55-8.34-6.83-17.87-6.83-28.59
				c0-10.72,2.28-20.25,6.83-28.59c4.55-8.34,10.9-14.84,19.04-19.49c8.14-4.65,17.42-6.98,27.83-6.98
				c10.41,0,19.69,2.33,27.83,6.98c8.14,4.65,14.49,11.15,19.04,19.49s6.83,17.88,6.83,28.59c0,10.72-2.28,20.25-6.83,28.59
				c-4.55,8.34-10.9,14.84-19.04,19.49c-8.14,4.65-17.42,6.98-27.83,6.98C217.5,131.31,208.23,128.98,200.09,124.33z M250.98,116.75
				c6.77-3.94,12.06-9.43,15.85-16.46c3.79-7.03,5.69-15.04,5.69-24.04c0-9-1.9-17.01-5.69-24.04c-3.79-7.03-9.08-12.51-15.85-16.46
				c-6.78-3.94-14.46-5.92-23.06-5.92c-8.7,0-16.43,1.97-23.21,5.92c-6.78,3.94-12.06,9.43-15.85,16.46
				c-3.79,7.03-5.69,15.04-5.69,24.04c0,9,1.9,17.02,5.69,24.04c3.79,7.03,9.08,12.51,15.85,16.46c6.77,3.94,14.51,5.92,23.21,5.92
				C236.52,122.66,244.2,120.69,250.98,116.75z"/>
			<path class="st3" d="M342.29,89.59h-28.82v39.74h-8.95V23.15h46.72c6.98,0,13.12,1.39,18.43,4.17
				c5.31,2.78,9.43,6.67,12.36,11.68c2.93,5.01,4.4,10.8,4.4,17.37c0,9.51-2.96,17.29-8.87,23.36c-5.92,6.07-13.83,9.35-23.74,9.86
				l36.4,39.74h-11.68L342.29,89.59z M313.47,31.8v49.15h37.92c7.99,0,14.33-2.22,19.04-6.67c4.7-4.45,7.05-10.41,7.05-17.9
				c0-7.48-2.35-13.45-7.05-17.9c-4.7-4.45-11.05-6.67-19.04-6.67H313.47z"/>
			<path class="st3" d="M487.61,129.34h-12.59l-54.76-52.18v52.18h-9.1V23.15h9.1v48.24l50.51-48.24h12.29l-53.55,50.97
				L487.61,129.34z"/>
		</g>
		<g>
			<line class="st4" x1="226.58" y1="41.76" x2="226.58" y2="85.58"/>
			<line class="st4" x1="226.58" y1="86.14" x2="247.93" y2="107.49"/>
		</g>
	</g>
</g>
</svg>
